<svg xmlns="http://www.w3.org/2000/svg" viewBox="0 0 500 500"><g id="freepik--background-complete--inject-73"><path d="M394,456.24c-17.83-9-24.54-29.44-26.63-48.42-.35-3.16-1.18-6.44-.08-9.42s4.33-5.38,7.34-4.46c2.5.77,3.91,3.34,5.55,5.4a18.64,18.64,0,0,0,8.41,6c2.16.75,4.73,1,6.56-.35,2.5-1.9,2.27-5.7,1.8-8.83l-2.64-17.51a29.75,29.75,0,0,1-.4-9.45c.54-3.11,2.3-6.19,5.16-7.45s6.8-.08,7.87,2.89a27.94,27.94,0,0,1,.65,3.89c.28,1.29,1.09,2.64,2.38,2.83s2.43-.89,3.24-1.94c2.77-3.63,4.38-8,5.85-12.38s2.85-8.79,5.29-12.66,6.1-7.2,10.55-8.1,9.64,1.17,11.41,5.41-.15,9.12-2.44,13.1a70.85,70.85,0,0,1-12.56,16,5.8,5.8,0,0,0-2.06,3c-.38,2.19,1.9,4,4.06,4.37,2.45.44,4.95-.17,7.44-.24s5.29.63,6.55,2.81c1.74,3-.45,6.76-2.77,9.34a60.61,60.61,0,0,1-16.26,12.81c-2.18,1.17-4.5,2.27-6.13,4.15s-2.34,4.87-.9,6.92,4.43,2.34,6.78,1.54,4.33-2.42,6.5-3.62c4.08-2.25,9.68-2.76,13,.56A10,10,0,0,1,449.8,421a23.1,23.1,0,0,1-3.63,8.44,60.86,60.86,0,0,1-23.12,21.8c-9.49,4.91-18.61,7.19-29.07,5" style="fill:#f5f5f5"></path><path d="M397.14,443.7a282.62,282.62,0,0,1,6.78-31.85q1.11-4.19,2.21-8.26c.73-2.7,1.45-5.39,2.32-8a142.43,142.43,0,0,1,5.85-14.56c2.09-4.54,4.23-8.78,6.27-12.72s4-7.58,5.95-10.82a111.84,111.84,0,0,1,10.29-14.58c1.34-1.62,2.42-2.84,3.17-3.66l.85-.93a2.51,2.51,0,0,1,.31-.3,2,2,0,0,1-.26.34l-.81,1c-.72.84-1.77,2.09-3.09,3.73a118,118,0,0,0-10.1,14.65C425,361,423,364.62,421,368.57s-4.13,8.18-6.2,12.72A141.92,141.92,0,0,0,409,395.8c-.86,2.57-1.58,5.23-2.31,7.95s-1.45,5.47-2.2,8.25a293.13,293.13,0,0,0-6.81,31.78" style="fill:#e0e0e0"></path><path d="M408.61,395.57a6.66,6.66,0,0,1-.5-1.29c-.29-.85-.67-2.08-1.11-3.61-.9-3.05-2-7.32-3.17-12s-2.34-8.95-3.28-12c-.46-1.52-.85-2.75-1.13-3.59a6.44,6.44,0,0,1-.37-1.33,6,6,0,0,1,.58,1.25c.35.82.8,2,1.31,3.54,1.05,3,2.26,7.25,3.45,12s2.2,8.85,3,12.06c.37,1.45.69,2.67.94,3.65A6,6,0,0,1,408.61,395.57Z" style="fill:#e0e0e0"></path><path d="M447.82,382.21a8.57,8.57,0,0,1-1.58.43c-1,.24-2.5.58-4.31,1.06-3.63.93-8.61,2.4-14,4.25s-10.25,3.76-13.7,5.23c-1.74.73-3.12,1.35-4.08,1.78a8,8,0,0,1-1.52.61,8.11,8.11,0,0,1,1.42-.82c.93-.49,2.3-1.17,4-1.95,3.42-1.57,8.25-3.54,13.68-5.41a142.71,142.71,0,0,1,14.11-4.09c1.83-.43,3.33-.72,4.37-.89A9.47,9.47,0,0,1,447.82,382.21Z" style="fill:#e0e0e0"></path><path d="M397.53,442.89a2.09,2.09,0,0,1-.35-.45l-.9-1.36c-.77-1.18-1.85-2.93-3.16-5.09-2.61-4.34-6-10.44-9.71-17.23s-7-12.91-9.56-17.29l-3-5.19c-.33-.56-.59-1-.81-1.41a2,2,0,0,1-.25-.52,2.09,2.09,0,0,1,.35.45l.9,1.36c.77,1.18,1.85,2.93,3.16,5.09,2.61,4.34,6,10.44,9.71,17.23s7,12.91,9.56,17.3c1.23,2.12,2.24,3.88,3,5.18.33.56.59,1,.81,1.41A2,2,0,0,1,397.53,442.89Z" style="fill:#e0e0e0"></path><path d="M448.59,417.89a2.11,2.11,0,0,1-.5.29l-1.48.75-5.47,2.69c-4.61,2.27-10.95,5.48-17.95,9s-13.37,6.71-18,8.89c-2.33,1.08-4.22,1.95-5.54,2.51l-1.53.65a2.17,2.17,0,0,1-.55.19,2.32,2.32,0,0,1,.5-.3l1.48-.74,5.47-2.69c4.61-2.27,10.95-5.48,17.95-9s13.37-6.7,18-8.88c2.34-1.09,4.23-1.95,5.55-2.52l1.53-.64A1.75,1.75,0,0,1,448.59,417.89Z" style="fill:#e0e0e0"></path><path d="M67.87,170.11l-9.81-19.43a27.78,27.78,0,0,0-13,14.25,25.71,25.71,0,0,0,2.27,24,31.33,31.33,0,0,0,1.86,2.61l.05.06h0l20.86-16.94Z" style="fill:#e0e0e0"></path><path d="M89.09,152.09a25.81,25.81,0,0,0-25.54-3.86l-.77.3-.5.2-1.43.66-.07,0h0l-.06,0h0l9.8,19.42,2.31,4.57,26-6.54h0a25.85,25.85,0,0,0-2-5.32A28.24,28.24,0,0,0,89.09,152.09Z" style="fill:#ebebeb"></path><path d="M72.61,176.49,51.75,193.44a26.87,26.87,0,0,0,46.92-23.5l-26,6.54" style="fill:#f5f5f5"></path><rect x="101.17" y="115.74" width="97.44" height="87.18" style="fill:#f5f5f5"></rect><rect x="92.3" y="122.37" width="97.44" height="87.18" style="fill:#ebebeb"></rect><path d="M392.51,80.28H423A30.48,30.48,0,1,1,391.81,49.8Z" style="fill:#e0e0e0"></path><path d="M400.73,72.85,400,42.37A32.16,32.16,0,0,1,422,51a31.37,31.37,0,0,1,9.22,21.37Z" style="fill:#f5f5f5"></path><path d="M125.55,277.57A18.52,18.52,0,0,1,129,274l-.84-4.48,6.93-3,2.69,3.68a18.4,18.4,0,0,1,4.92-.07l2.58-3.76,7,2.79-.71,4.5a18.47,18.47,0,0,1,3.52,3.43l4.49-.83,3,6.93-3.68,2.68a18.4,18.4,0,0,1,.07,4.92l3.76,2.58-2.79,7-4.51-.71a18.22,18.22,0,0,1-3.43,3.53l.84,4.48-6.93,3L143.2,307a18.4,18.4,0,0,1-4.92.07l-2.58,3.76-7-2.79.71-4.5a18.52,18.52,0,0,1-3.53-3.43l-4.48.83-3-6.93,3.69-2.68a18.4,18.4,0,0,1-.07-4.92l-3.76-2.58,2.79-7,4.5.71Zm7.53,7.77a8.09,8.09,0,1,0,10.52-4.53A8.1,8.1,0,0,0,133.08,285.34Z" style="fill:none"></path><path d="M133.08,285.34a2.23,2.23,0,0,1,.17-.49,6.44,6.44,0,0,1,.72-1.31,8,8,0,0,1,4.41-3.17,8.27,8.27,0,0,1,10.29,5.86A8.26,8.26,0,0,1,145,295.4a8.12,8.12,0,0,1-4.68,1.25,8.29,8.29,0,0,1-4.19-1.3,8.2,8.2,0,0,1-3.67-8.09,6.51,6.51,0,0,1,.38-1.45,2.24,2.24,0,0,1,.21-.47c.06,0-.24.68-.39,1.94a8.06,8.06,0,0,0,1.14,5.12A7.9,7.9,0,0,0,144.76,295a7.82,7.82,0,0,0,3.42-8.61,7.73,7.73,0,0,0-2.36-3.89,7.87,7.87,0,0,0-7.34-1.75,8.14,8.14,0,0,0-4.35,2.94C133.37,284.68,133.14,285.37,133.08,285.34Z" style="fill:#e0e0e0"></path><path d="M125.55,277.57l-.28,0-.86-.11-3.38-.49.09-.05c-.7,1.81-1.62,4.17-2.74,7l0-.16,3.77,2.57.08.05v.09a18.18,18.18,0,0,0,.09,4.87v.11l-.08.06-3.68,2.69.06-.22q1.43,3.27,3,6.92l-.22-.12,4.48-.84.13,0,.08.11a18.44,18.44,0,0,0,3.49,3.38l.11.08,0,.13c-.22,1.4-.46,2.94-.7,4.51l-.15-.25,7,2.78-.29.08,2.57-3.76.09-.12.15,0a18.42,18.42,0,0,0,4.85-.08l.15,0,.09.12,2.69,3.69-.31-.09,6.93-3-.15.29c-.27-1.42-.55-2.94-.84-4.48l0-.16.12-.1a18,18,0,0,0,3.38-3.47h0c.49-.21.13-.06.25-.1h.13l.14,0,.29,0,.56.09,1.13.18,2.25.35-.28.16,2.79-7,.09.31-3.76-2.58-.12-.09v-.15a18.29,18.29,0,0,0-.06-4.85l0-.15.13-.09,3.69-2.68-.09.3-3-6.94.26.14-4.48.83-.14,0-.09-.11a18,18,0,0,0-3.48-3.4l-.11-.08,0-.13c.24-1.55.48-3,.71-4.5l.14.23-7-2.8.24-.08-2.59,3.76-.06.09h-.12a18.37,18.37,0,0,0-4.87.05l-.1,0-.06-.09L135,266.67l.18.05-6.94,2.95.07-.13.8,4.49v.05l0,0a19.33,19.33,0,0,0-2.69,2.53l-.59.7a1.67,1.67,0,0,1-.2.23,1.64,1.64,0,0,1,.16-.26c.12-.16.3-.41.56-.72a17.78,17.78,0,0,1,2.66-2.61l0,.08c-.24-1.22-.52-2.69-.87-4.48l0-.09.09,0,6.91-3,.11,0,.08.09,2.7,3.68-.17-.07a19.05,19.05,0,0,1,5-.09l-.18.08,2.57-3.76.09-.13.15.06,7,2.77.16.06,0,.17c-.23,1.47-.46,3-.7,4.51l-.09-.22a18.93,18.93,0,0,1,3.58,3.47l-.23-.09,4.48-.84.19,0,.08.17c1,2.26,2,4.56,3,6.93l.08.18-.16.12L159,286.14l.1-.24a18.85,18.85,0,0,1,.07,5l-.11-.24,3.76,2.58.17.11-.07.19-2.79,7-.08.19-.2,0-2.25-.36-1.13-.17-.56-.09-.29-.05-.14,0h-.13l.24-.1h0a18.7,18.7,0,0,1-3.47,3.57l.09-.25c.29,1.54.57,3.07.83,4.48l0,.21-.19.08L146,311l-.19.08-.12-.16c-.92-1.28-1.84-2.54-2.68-3.69l.24.1a18.54,18.54,0,0,1-5,.07l.23-.11L135.9,311l-.11.16-.18-.07-7-2.8-.17-.07,0-.18c.25-1.57.49-3.11.71-4.51l.09.22a18.7,18.7,0,0,1-3.56-3.48l.21.08-4.49.83-.16,0-.06-.16c-1-2.43-2-4.75-3-6.93l-.06-.14.12-.09,3.7-2.67-.07.16a18.8,18.8,0,0,1-.06-5l.07.15-3.75-2.6-.08-.06,0-.1c1.16-2.84,2.11-5.2,2.84-7l0-.06h.07l3.33.57.86.15Z" style="fill:#e0e0e0"></path><path d="M133.08,285.34s.13-.32.45-.9a8,8,0,0,1,1.84-2.24,8.08,8.08,0,1,1,4.56,14.23,8.17,8.17,0,0,1-7.26-6,8.6,8.6,0,0,1-.3-2.58,9.56,9.56,0,0,1,.16-1.31c0-.22.09-.43.15-.64l.08-.32.05-.15,0-.07v0c0-.06,0,.17.17.22l.31-.12a4.34,4.34,0,0,0-.37,1,7.63,7.63,0,0,0,.3,4.93,8,8,0,0,0,3.06,3.71,8.16,8.16,0,0,0,4.48,1.28,8.06,8.06,0,0,0,7.1-4.52,8.09,8.09,0,0,0-2.59-10.17,8.1,8.1,0,0,0-9.93.45,7.91,7.91,0,0,0-1.84,2.26,6.37,6.37,0,0,0-.33.69,1.47,1.47,0,0,1-.11.24.88.88,0,0,1,.06-.26,4.84,4.84,0,0,1,.29-.72,7.65,7.65,0,0,1,1.79-2.36,8.32,8.32,0,0,1,4.25-2,8.43,8.43,0,0,1,9.66,7.9,8.54,8.54,0,0,1-3.81,7.57,8.48,8.48,0,0,1-12.56-3.88,8.23,8.23,0,0,1-.33-5.26,5.08,5.08,0,0,1,.43-1.12l.1-.19.2.07c.18.07.21.31.19.26s0,.06,0,.07v.06l0,.09-.05.15-.08.31c-.05.2-.1.4-.14.61a8.6,8.6,0,0,0-.15,1.23,8.19,8.19,0,0,0,.28,2.42,7.72,7.72,0,0,0,6.8,5.65,7.68,7.68,0,0,0,5.2-13.8,7.78,7.78,0,0,0-5.59-1.51,8,8,0,0,0-4.09,1.73,8.23,8.23,0,0,0-1.87,2.14C133.27,285.05,133.13,285.38,133.08,285.34Z" style="fill:#e0e0e0"></path><path d="M125.55,277.57l-4.56-.73.06,0L118.2,284l0-.11,3.83,2.63-.16.14-.06-.13.21,0a18.52,18.52,0,0,0,.07,4.92l-.24,0,.06-.14.19.15-3.79,2.76,0-.16,3.1,7.18-.17-.09,4.63-.86,0,.31-.19-.07.19-.25a18.33,18.33,0,0,0,3.53,3.43l-.26.2-.08-.19.33,0c-.23,1.41-.48,3-.74,4.66l-.11-.19,7.33,2.91-.23.07,2.68-3.9.24.28-.21.1-.05-.37a18.56,18.56,0,0,0,4.92-.08l0,.39-.21-.09.24-.31,2.79,3.84-.25-.07,7.26-3.14-.12.24c-.27-1.42-.57-3-.87-4.66l.42,0-.09.23-.34-.25a19,19,0,0,0,3.44-3.54l.26.35-.23.09,0-.43,4.69.73-.25.14,2.92-7.35.08.28-3.91-2.68.35-.3.1.22-.45.07a18.46,18.46,0,0,0-.08-4.91l.46.05-.09.22-.36-.29,3.82-2.8-.08.3c-1-2.25-2-4.73-3.13-7.24l.27.14-4.65.87,0-.48.21.08-.29.39a18.49,18.49,0,0,0-3.52-3.42l.38-.29.08.19-.48.06c.22-1.45.47-3.05.72-4.66l.16.27-7.3-2.88.31-.09-2.65,3.88-.32-.38.16-.07.08.49a18.38,18.38,0,0,0-4.9.09l.07-.5.14.06-.31.39-2.76-3.76.31.08-7.09,3.1.15-.29c.28,1.44.58,3,.88,4.56l-.5,0,0-.08.41.3a16.58,16.58,0,0,0-3,3l-.21.27h-.14c.08,0-.23-.27-.34-.15l0,0h0l.45-.54c.3-.36.62-.72,1-1.06a18.76,18.76,0,0,1,2.11-1.89l-.1.25c-.27-1.53-.54-3-.81-4.53l.49.07-.07.12-.33-.36,6.95-3,0,.49-.17,0,.28-.41,2.73,3.77-.25-.1a18.84,18.84,0,0,1,5.14-.06l-.25.11,2.65-3.83.29.39-.22.06,0-.48,7,2.8-.32.37-.12-.21.48-.09c-.25,1.55-.5,3.09-.74,4.62l-.1-.24a18.15,18.15,0,0,1,3.7,3.62l-.24-.1,4.61-.85-.07.47-.24-.13.35-.31,3,6.93-.46,0,.08-.27.38.27c-1.3.93-2.55,1.85-3.8,2.76l.09-.23a18.45,18.45,0,0,1,.07,5.19l-.1-.23,3.87,2.67-.36.26-.08-.28.44,0c-.95,2.4-1.88,4.72-2.79,7l-.33-.28.25-.15.08.43-4.64-.74.21-.08a18.82,18.82,0,0,1-3.62,3.72l.08-.22c.3,1.61.58,3.13.85,4.62l-.4-.06.14-.25.27.3-6.93,3,0-.39.27.07-.22.32-2.77-3.79.2.08a18.43,18.43,0,0,1-5.18.07l.18-.08-2.65,3.86-.21-.28.25-.08v.35l-7-2.79.22-.25.13.23-.33.06c.26-1.7.5-3.18.72-4.63l.07.17a18.87,18.87,0,0,1-3.69-3.59l.16.06-4.6.85,0-.28.2.11-.2.19c-1.14-2.62-2.09-4.85-3-6.93l.25,0-.05.2-.21-.14,3.76-2.74-.05.12a18.69,18.69,0,0,1-.08-5.09l0,.1-3.83-2.62.14-.1,0,.14h-.17l2.78-7,.08.07-.08,0,0-.1,4.51.69a8.71,8.71,0,0,1-1.12-.11L121,277l-.17,0,.15-.08.08-.05.14-.08-.06.15c-.67,1.72-1.54,4-2.72,7l-.09.25-.08-.26,0-.14-.08-.25.22.15,3.84,2.6,0,0v.07a18.28,18.28,0,0,0,.1,5v.07l-.06.05-3.74,2.76-.31.22.1-.37,0-.2.1-.36.16.35,3,6.91.17.4-.38-.21-.2-.1-.38-.2.43-.08,4.59-.88.09,0,.06.08a18.53,18.53,0,0,0,3.64,3.51l.08.06v.11l-.71,4.62-.08.5-.25-.44-.13-.22-.25-.44.47.19,7,2.76.5.2-.52.16-.25.08-.52.16.3-.45,2.65-3.87.07-.1h.11a18.11,18.11,0,0,0,5.08-.08l.12,0,.07.1,2.77,3.79.35.48-.57-.16-.27-.07-.57-.16.54-.23,6.92-3,.57-.24-.29.54-.14.26-.29.54-.11-.61c-.28-1.49-.56-3-.86-4.62l0-.13.11-.08a18.24,18.24,0,0,0,3.53-3.64l.08-.11.14,0L160,300l.64.1-.56.32-.25.14-.57.33.24-.61,2.78-7,.25-.62.2.64.08.27.2.64-.56-.38-3.87-2.65-.12-.09,0-.14a18.28,18.28,0,0,0-.07-5.06l0-.15.12-.08,3.8-2.77.56-.41-.18.67c0,.09,0,.18-.08.27l-.18.67-.27-.64c-1-2.28-2-4.59-3-6.93l-.28-.65.63.33.23.13.63.33-.7.13-4.61.86-.15,0-.09-.12a18,18,0,0,0-3.61-3.52l-.12-.09,0-.15c.24-1.53.49-3.07.73-4.62l.12-.71.36.62.11.21.37.64-.68-.27-7-2.81-.67-.27.7-.21.21-.06.7-.22-.42.61q-1.31,1.9-2.64,3.83l-.09.13-.15,0a18.21,18.21,0,0,0-5,.06l-.16,0-.09-.12c-.91-1.25-1.81-2.51-2.73-3.77l-.43-.6.71.2.17,0,.71.2-.68.29-6.94,3-.68.28.35-.65.06-.11.35-.66.13.74c.27,1.49.54,3,.82,4.53l0,.15-.12.1a18.72,18.72,0,0,0-2,1.84c-.32.34-.63.68-.93,1l-.46.54,0,.05,0,0-.06,0c-.11.12-.42-.16-.34-.15h0v-.05a.83.83,0,0,1,0-.15,1,1,0,0,1,.14-.29l.22-.29a17.59,17.59,0,0,1,3.05-3.1l.74-.59-.33.89,0,.07-.33.86-.17-.9c-.3-1.57-.6-3.12-.88-4.56l0-.21.19-.08,7.09-3.09.2-.08.12.16,2.76,3.77.55.75-.86-.36-.14-.06-.85-.36.91-.14a18.92,18.92,0,0,1,5-.08l.92.11-.85.38-.15.07-.84.38.52-.76,2.65-3.88.11-.17.19.08,7.29,2.88.19.08,0,.2-.72,4.65-.14.9-.35-.84-.08-.19-.34-.83.73.53a18.85,18.85,0,0,1,3.61,3.51l.56.71-.84-.32-.2-.08-.84-.31.88-.17,4.65-.87.19,0,.08.18c1.09,2.51,2.16,5,3.13,7.24l.08.18-.16.12-3.83,2.79-.7.51.34-.8.09-.21.33-.8.13.85a19.08,19.08,0,0,1,.07,5.05l-.1.84L159,291l-.1-.22-.35-.77.7.48,3.91,2.68.15.11-.06.17c-1,2.56-2,5.08-2.93,7.35l-.07.17-.18,0-4.69-.74-.79-.12.74-.31.23-.09.74-.3-.48.65a18.55,18.55,0,0,1-3.52,3.6l-.62.49.28-.74.09-.22.28-.74.14.78c.3,1.63.6,3.24.86,4.66l0,.17-.16.07-7.26,3.12-.16.06-.09-.13-2.79-3.84-.42-.58.66.28.22.09.66.28-.71.1a18.92,18.92,0,0,1-5,.06l-.69-.08.63-.29.21-.09.64-.29-.4.58-2.69,3.89-.08.13-.14-.06-7.32-2.93-.13-.06,0-.14c.27-1.64.52-3.24.75-4.66l.1-.6.22.56.08.2.23.56-.48-.36a18.74,18.74,0,0,1-3.59-3.51l-.35-.46.54.21.18.07.54.2-.57.11-4.63.84-.12,0,0-.11-3.07-7.2,0-.1.09-.06,3.8-2.74.36-.26-.17.4-.06.15-.17.41-.07-.44a19,19,0,0,1,0-5l0-.39.16.36.06.13.16.36-.32-.23L118.06,284l-.06,0,0-.07,2.92-7.12v-.05H121l3.4.61.86.16Z" style="fill:#e0e0e0"></path><path d="M177,285.86a7.94,7.94,0,0,1,1.45-1.5l-.35-1.89,2.93-1.27,1.13,1.56a8,8,0,0,1,2.08,0l1.1-1.59,3,1.18-.3,1.91a7.59,7.59,0,0,1,1.49,1.45l1.9-.35,1.26,2.93-1.55,1.13a8,8,0,0,1,0,2.08l1.59,1.1-1.18,3-1.91-.3a7.94,7.94,0,0,1-1.45,1.5l.35,1.89-2.93,1.27-1.14-1.56a8,8,0,0,1-2.08,0L181.31,300l-3-1.18.29-1.91a8.19,8.19,0,0,1-1.49-1.45l-1.89.35L174,292.83l1.56-1.14a8,8,0,0,1,0-2.08l-1.59-1.09,1.18-3,1.91.3Zm3.19,3.28a3.42,3.42,0,1,0,4.44-1.91A3.42,3.42,0,0,0,180.21,289.14Z" style="fill:#e0e0e0"></path><path d="M180.21,289.14a2.69,2.69,0,0,1,.37-.76,3.49,3.49,0,0,1,1.87-1.33,3.44,3.44,0,0,1,1.61-.08,3.58,3.58,0,0,1,1.66.81,3.29,3.29,0,0,1,.65.78,3.19,3.19,0,0,1,.42,1,3.52,3.52,0,0,1-2.51,4.29,3.11,3.11,0,0,1-1,.11,3.45,3.45,0,0,1-2.88-1.71A3.38,3.38,0,0,1,180,290a2.55,2.55,0,0,1,.25-.82,7.65,7.65,0,0,0-.18.83,3.4,3.4,0,0,0,.49,2.17,3.3,3.3,0,0,0,1.08,1.09,3.39,3.39,0,0,0,1.69.51,3.47,3.47,0,0,0,1-.11,3.2,3.2,0,0,0,.91-.4,3.36,3.36,0,0,0,1.33-1.59,3.43,3.43,0,0,0,.13-2.07,3.29,3.29,0,0,0-.4-.92,2.89,2.89,0,0,0-.61-.73,3.35,3.35,0,0,0-1.57-.79,3.3,3.3,0,0,0-1.54.05,3.42,3.42,0,0,0-1.85,1.25C180.33,288.86,180.23,289.15,180.21,289.14Z" style="fill:#e0e0e0"></path><path d="M177,285.86l-.12,0-.36,0-1.43-.2,0,0-1.16,3,0-.06,1.6,1.09,0,0v0a8,8,0,0,0,0,2.06v0l0,0L174,292.89l0-.09,1.27,2.93-.09,0,1.9-.36h.05l0,0a7.48,7.48,0,0,0,1.48,1.43l0,0v.05c-.09.59-.19,1.25-.3,1.91l-.05-.1,3,1.18-.11,0,1.09-1.59,0,0h0a7.52,7.52,0,0,0,2.06,0h.06l0,0,1.14,1.56-.12,0,2.93-1.27,0,.11c-.12-.6-.24-1.25-.36-1.9v-.06l0,0a8,8,0,0,0,1.43-1.47h0l0,0h.06l1.9.3-.11.06c.4-1,.8-2,1.19-3l0,.12-1.59-1.1-.05,0v-.06a7.81,7.81,0,0,0,0-2v-.06l.05,0,1.56-1.14,0,.11-1.26-2.93.1.06-1.9.35h-.05l0,0A8,8,0,0,0,188,284.3l0,0v-.06c.1-.65.2-1.28.3-1.9l0,.09-3-1.19.09,0c-.39.55-.75,1.08-1.1,1.58l0,0h0a7.5,7.5,0,0,0-2.07,0h0l0,0L181,281.24l.07,0-2.94,1.25,0-.05c.14.76.25,1.38.34,1.9v0h0a7.78,7.78,0,0,0-1.14,1.07l-.25.3-.08.1.07-.11c0-.07.13-.18.24-.31a7.28,7.28,0,0,1,1.12-1.1v0c-.1-.52-.22-1.14-.37-1.9v0h0l2.92-1.28,0,0,0,0,1.15,1.56-.07,0a8.13,8.13,0,0,1,2.1,0l-.06,0,1.08-1.59,0-.05,0,0,3,1.18.06,0v.07l-.29,1.9,0-.08a7.72,7.72,0,0,1,1.51,1.46l-.08,0,1.89-.35.08,0,0,.07c.42.95.84,1.93,1.27,2.93l0,.07-.06,0-1.56,1.14,0-.09a7.84,7.84,0,0,1,0,2.11l0-.09,1.59,1.09.06,0,0,.07-1.18,3,0,.07h-.08l-1.9-.3.09,0h0a7.54,7.54,0,0,1-1.47,1.51l0-.09.35,1.89v.08l-.07,0L185.66,300l-.07,0-.05-.06-1.13-1.56.09,0a7.88,7.88,0,0,1-2.11,0l.09,0L181.39,300l0,.06-.07,0-3-1.18-.06,0v-.07c.1-.66.21-1.31.3-1.9l0,.08a7.76,7.76,0,0,1-1.5-1.47l.08,0-1.9.35h-.06l0-.06c-.45-1-.87-2-1.26-2.93l0-.05,0,0c.55-.39,1.08-.77,1.56-1.13l0,.06a7.72,7.72,0,0,1,0-2.09l0,.05-1.59-1.1,0,0,0,0c.48-1.2.89-2.2,1.19-3v0h0l1.41.23.36.07Z" style="fill:#e0e0e0"></path><path d="M162.73,244.47a12.75,12.75,0,0,1,2.43-2.49l-.59-3.18,4.9-2.11,1.9,2.61a13.06,13.06,0,0,1,3.48-.05l1.82-2.66,5,2-.5,3.19a13.29,13.29,0,0,1,2.49,2.42l3.17-.59,2.11,4.9-2.6,1.9a13.5,13.5,0,0,1,0,3.48l2.65,1.83-2,4.95-3.18-.5a12.81,12.81,0,0,1-2.43,2.5l.59,3.17-4.9,2.11-1.9-2.61a13.07,13.07,0,0,1-3.48.05L169.91,268l-5-2,.5-3.19a13.29,13.29,0,0,1-2.49-2.42l-3.17.59-2.11-4.9,2.6-1.9a13.07,13.07,0,0,1-.05-3.48l-2.66-1.82,2-5,3.18.5Zm5.33,5.49a5.73,5.73,0,1,0,7.43-3.2A5.73,5.73,0,0,0,168.06,250Z" style="fill:#f5f5f5"></path><path d="M168.06,250a4.5,4.5,0,0,1,.63-1.27,5.79,5.79,0,0,1,5.81-2.36,5.94,5.94,0,0,1,2.78,1.36,5.45,5.45,0,0,1,1.09,1.29,5.72,5.72,0,0,1,.7,1.62,5.91,5.91,0,0,1-.22,3.66,5.85,5.85,0,0,1-2.35,2.8,5.38,5.38,0,0,1-1.62.7,5.71,5.71,0,0,1-1.68.19,5.94,5.94,0,0,1-2.95-.92,5.74,5.74,0,0,1-1.87-1.94,5.67,5.67,0,0,1-.73-3.77,4.37,4.37,0,0,1,.41-1.36s-.18.48-.29,1.38a5.75,5.75,0,0,0,.81,3.63,5.63,5.63,0,0,0,1.81,1.83,5.73,5.73,0,0,0,2.82.85,5.45,5.45,0,0,0,1.59-.19,5.32,5.32,0,0,0,1.53-.67,5.54,5.54,0,0,0,2.43-6.11,5.74,5.74,0,0,0-1.68-2.76,5.63,5.63,0,0,0-8.28.85C168.26,249.5,168.1,250,168.06,250Z" style="fill:#f5f5f5"></path><path d="M162.73,244.47l-.2,0-.6-.08-2.39-.35.06,0c-.5,1.27-1.16,2.94-1.95,5l0-.1,2.67,1.81.05,0v.06a12.94,12.94,0,0,0,.06,3.45v.07l-.05,0-2.6,1.9,0-.14,2.13,4.9-.15-.08,3.17-.6H163l.06.06a12.83,12.83,0,0,0,2.47,2.4l.07.05,0,.09-.49,3.18-.09-.16,5,2-.19.05,1.83-2.66,0-.07h.09a12.86,12.86,0,0,0,3.44-.06h.09l.06.08c.6.81,1.25,1.7,1.9,2.6l-.19-.05,4.9-2.11-.1.18c-.19-1-.39-2.08-.59-3.17l0-.1.08-.06a13,13,0,0,0,2.39-2.46h0l.06-.08h.09l3.19.5-.18.1c.67-1.67,1.32-3.33,2-4.95l.06.19L186.25,254l-.08-.05,0-.1a13.56,13.56,0,0,0-.05-3.43l0-.1.08-.06,2.61-1.89-.05.19-2.11-4.91.17.09-3.17.59h-.09l-.06-.07a13,13,0,0,0-2.46-2.4l-.07-.05,0-.08c.17-1.1.34-2.15.5-3.19l.09.15-5-2,.15-.05-1.83,2.66,0,.05h-.07a12.78,12.78,0,0,0-3.45,0h-.06l0-.06-1.89-2.61.12,0-4.91,2.09,0-.08c.23,1.27.41,2.31.57,3.18v0l0,0a13.89,13.89,0,0,0-1.9,1.79l-.42.5-.14.16.12-.18a5.48,5.48,0,0,1,.4-.51,12.44,12.44,0,0,1,1.87-1.85v0c-.17-.86-.37-1.9-.62-3.16v-.06l.06,0,4.89-2.14.07,0,.05.07,1.9,2.6-.1-.05a13.61,13.61,0,0,1,3.51-.06l-.11.05,1.82-2.66.05-.08.1,0,5,2,.1,0,0,.1c-.16,1-.32,2.1-.49,3.19l-.06-.14a13.62,13.62,0,0,1,2.53,2.45l-.15-.05,3.17-.59.12,0,.05.11c.69,1.6,1.39,3.23,2.12,4.9l0,.12-.11.07-2.6,1.9.06-.15a13.36,13.36,0,0,1,.06,3.52l-.07-.15,2.66,1.82.1.07,0,.13c-.64,1.62-1.3,3.28-2,4.95l0,.13-.13,0-3.19-.5.16-.07h0a13.15,13.15,0,0,1-2.46,2.53l.06-.16c.2,1.09.41,2.17.59,3.17l0,.13-.12,0-4.91,2.11-.11.05L177,268c-.65-.9-1.3-1.79-1.9-2.6l.16.06a13.45,13.45,0,0,1-3.52,0l.14-.07c-.63.92-1.26,1.83-1.82,2.66l-.07.1-.12,0-4.95-2-.11,0,0-.11c.17-1.11.35-2.2.5-3.19l.06.14a13.41,13.41,0,0,1-2.52-2.46l.13.05-3.17.58-.1,0,0-.09q-1.11-2.58-2.1-4.91l0-.08.08-.06,2.61-1.89,0,.1a12.87,12.87,0,0,1,0-3.5l0,.09L157.53,249l-.06,0,0-.06c.81-2,1.49-3.68,2-5v0h.05l2.35.39.61.11Z" style="fill:#f5f5f5"></path><path d="M342.82,320.92l41.35-6.32a41.83,41.83,0,1,1-47.66-35,41.52,41.52,0,0,1,10.91-.22Z" style="fill:#f5f5f5"></path><path d="M356.24,279.48l-5,32,31.46-5.91S378.05,287.66,356.24,279.48Z" style="fill:#e0e0e0"></path></g><g id="freepik--Floor--inject-73"><path d="M449.16,456.83c0,.15-92.2.26-205.91.26S37.33,457,37.33,456.83s92.18-.26,205.92-.26S449.16,456.69,449.16,456.83Z" style="fill:#263238"></path></g><g id="freepik--Charts--inject-73"><rect x="282.52" y="97.22" width="179.05" height="155.39" style="fill:#fafafa"></rect><path d="M461.57,252.61s0-1,0-2.87,0-4.66,0-8.3c0-7.27,0-17.92-.06-31.5,0-27.14-.07-66-.11-112.72l.22.22-179,0h0l.26-.26c0,56.42,0,109.58,0,155.39l-.23-.23,129.51.11,36.54.06,9.66,0h2.49l.85,0h-3.29l-9.62,0-36.48.06-129.66.12h-.23v-.23c0-45.81,0-99,0-155.39V97h.27l179,0h.22v.22c-.05,46.81-.09,85.68-.12,112.85,0,13.56,0,24.2-.05,31.46,0,3.62,0,6.39,0,8.26S461.57,252.61,461.57,252.61Z" style="fill:#263238"></path><path d="M445.06,139s-.25,0-.73,0l-2.13,0-8.25,0-30.68.08L299,139.3l.26-.26v71.74l-.26-.25,103.52.09,30.45.07,8.18.05,2.11,0,.72,0s-.24,0-.72,0l-2.11,0-8.18,0-30.45.08L299,211h-.25v-.26c0-11.76,0-23.93,0-36.4,0-12.11,0-23.93,0-35.34v-.25H299l104.25.09L434,139l8.25.05,2.13,0Z" style="fill:#e0e0e0"></path><path d="M445.06,151.12c0,.14-32.69.26-73,.26s-73-.12-73-.26,32.69-.26,73-.26S445.06,151,445.06,151.12Z" style="fill:#e0e0e0"></path><path d="M445.06,161c0,.14-32.69.26-73,.26s-73-.12-73-.26,32.69-.26,73-.26S445.06,160.86,445.06,161Z" style="fill:#e0e0e0"></path><path d="M445.06,170.88c0,.15-32.69.26-73,.26s-73-.11-73-.26,32.69-.26,73-.26S445.06,170.74,445.06,170.88Z" style="fill:#e0e0e0"></path><path d="M445.06,180.76c0,.15-32.69.26-73,.26s-73-.11-73-.26,32.69-.26,73-.26S445.06,180.62,445.06,180.76Z" style="fill:#e0e0e0"></path><path d="M445.06,190.65c0,.14-32.69.26-73,.26s-73-.12-73-.26,32.69-.26,73-.26S445.06,190.5,445.06,190.65Z" style="fill:#e0e0e0"></path><path d="M299,200.53c0-.15,32.7-.26,73-.26s73,.11,73,.26-32.69.26-73,.26S299,200.67,299,200.53Z" style="fill:#e0e0e0"></path><path d="M327.94,211.87c-.14,0-.26-16.3-.26-36.41s.12-36.42.26-36.42.26,16.3.26,36.42S328.09,211.87,327.94,211.87Z" style="fill:#e0e0e0"></path><path d="M357.22,211.87c-.14,0-.26-16.3-.26-36.41s.12-36.42.26-36.42.26,16.3.26,36.42S357.37,211.87,357.22,211.87Z" style="fill:#e0e0e0"></path><path d="M386.5,211.87c-.14,0-.26-16.3-.26-36.41s.12-36.42.26-36.42.26,16.3.26,36.42S386.64,211.87,386.5,211.87Z" style="fill:#e0e0e0"></path><path d="M415.78,211.87c-.14,0-.26-16.3-.26-36.41s.12-36.42.26-36.42.26,16.3.26,36.42S415.92,211.87,415.78,211.87Z" style="fill:#e0e0e0"></path><path d="M445.06,211.87c-.14,0-.26-16.3-.26-36.41s.12-36.42.26-36.42.26,16.3.26,36.42S445.2,211.87,445.06,211.87Z" style="fill:#e0e0e0"></path><path d="M445.06,151.12a7.46,7.46,0,0,1-1.1.86l-3.28,2.32-12.25,8.46c-10.44,7.15-25,17.09-41.64,28.31l-.21.15-.24-.09-12.44-4.19-16.84-5.69.45-.06-29.34,19.67-.05,0,0,0-21.18,7.32-5.82,2-1.52.48a1.81,1.81,0,0,1-.54.12,2.31,2.31,0,0,1,.5-.24L301,210l5.74-2.15,21.06-7.65-.09,0,29.22-19.86.2-.14.24.08L374.23,186l12.44,4.2-.46.06c16.62-11.19,31.3-21,41.84-28l12.43-8.2,3.37-2.17A7.12,7.12,0,0,1,445.06,151.12Z" style="fill:#37474F"></path><circle cx="327.94" cy="200.53" r="1.78" style="fill:#37474F"></circle><path d="M359,180.76a1.78,1.78,0,1,1-1.78-1.78A1.78,1.78,0,0,1,359,180.76Z" style="fill:#37474F"></path><path d="M388.28,190.48a1.78,1.78,0,1,1-1.78-1.79A1.78,1.78,0,0,1,388.28,190.48Z" style="fill:#37474F"></path><path d="M417.86,171a1.78,1.78,0,1,1-1.78-1.78A1.78,1.78,0,0,1,417.86,171Z" style="fill:#37474F"></path><path d="M445.06,200.53a3.31,3.31,0,0,1-.55-.3l-1.56-1L437,195.43l-21.47-14.15H416L386.78,201l-.4.26-.28-.38-15.4-20.76c-4.8-6.48-9.46-12.78-13.88-18.77l.76.06-29.36,29.56-.07.06-.09,0-21.76,7.07L300.36,200l-1.55.46a2.46,2.46,0,0,1-.55.12,2.05,2.05,0,0,1,.51-.23l1.52-.56,5.88-2.07,21.65-7.39-.15.1,29.19-29.73.42-.42.35.47,13.91,18.75c5.36,7.25,10.55,14.26,15.36,20.78l-.68-.12,29.34-19.49.22-.15.22.15,21.28,14.44,5.8,4,1.49,1.07A2.35,2.35,0,0,1,445.06,200.53Z" style="fill:#455a64"></path><path d="M359,161a1.78,1.78,0,1,1-1.78-1.78A1.77,1.77,0,0,1,359,161Z" style="fill:#455a64"></path><path d="M329.72,190.65a1.78,1.78,0,1,1-1.78-1.79A1.78,1.78,0,0,1,329.72,190.65Z" style="fill:#455a64"></path><path d="M388.28,200.53a1.78,1.78,0,1,1-1.78-1.78A1.78,1.78,0,0,1,388.28,200.53Z" style="fill:#455a64"></path><circle cx="415.78" cy="182.55" r="1.78" style="fill:#455a64"></circle><path d="M315.72,219a15.42,15.42,0,0,1-5.64,0,15.42,15.42,0,0,1,5.64,0Z" style="fill:#e0e0e0"></path><path d="M345.64,219a15.42,15.42,0,0,1-5.64,0,15.42,15.42,0,0,1,5.64,0Z" style="fill:#e0e0e0"></path><path d="M375.57,219a15.42,15.42,0,0,1-5.64,0,15.42,15.42,0,0,1,5.64,0Z" style="fill:#e0e0e0"></path><path d="M405.5,219a15.42,15.42,0,0,1-5.64,0,15.42,15.42,0,0,1,5.64,0Z" style="fill:#e0e0e0"></path><path d="M435.42,219a15.42,15.42,0,0,1-5.64,0,15.42,15.42,0,0,1,5.64,0Z" style="fill:#e0e0e0"></path><path d="M294.9,210.38a10.13,10.13,0,0,1-4.56,0,10.13,10.13,0,0,1,4.56,0Z" style="fill:#e0e0e0"></path><path d="M294.9,198.89a10.13,10.13,0,0,1-4.56,0,10.13,10.13,0,0,1,4.56,0Z" style="fill:#e0e0e0"></path><path d="M294.9,187.4a10.13,10.13,0,0,1-4.56,0,10.13,10.13,0,0,1,4.56,0Z" style="fill:#e0e0e0"></path><path d="M294.9,175.9a10.13,10.13,0,0,1-4.56,0,10.13,10.13,0,0,1,4.56,0Z" style="fill:#e0e0e0"></path><path d="M294.9,164.41a10.13,10.13,0,0,1-4.56,0,10.13,10.13,0,0,1,4.56,0Z" style="fill:#e0e0e0"></path><path d="M294.9,152.92a10.13,10.13,0,0,1-4.56,0,10.13,10.13,0,0,1,4.56,0Z" style="fill:#e0e0e0"></path><path d="M294.9,141.42a10.13,10.13,0,0,1-4.56,0,10.13,10.13,0,0,1,4.56,0Z" style="fill:#e0e0e0"></path><rect x="298.26" y="114.19" width="41.95" height="2.98" style="fill:#37474F"></rect><path d="M415.15,122.88c0,.14-26.23.26-58.59.26S298,123,298,122.88s26.22-.26,58.58-.26S415.15,122.73,415.15,122.88Z" style="fill:#263238"></path><path d="M372.33,233.31c0,.14-16,.26-35.72.26s-35.73-.12-35.73-.26,16-.27,35.73-.27S372.33,233.16,372.33,233.31Z" style="fill:#263238"></path><path d="M318,238.7a54.82,54.82,0,0,1-7.62.26,54.82,54.82,0,0,1-7.62-.26,56.75,56.75,0,0,1,7.62-.26A56.75,56.75,0,0,1,318,238.7Z" style="fill:#263238"></path><path d="M437.1,232.35c0,.15-11.37.26-25.4.26s-25.4-.11-25.4-.26,11.37-.26,25.4-.26S437.1,232.21,437.1,232.35Z" style="fill:#263238"></path><path d="M409.48,235.85a121.37,121.37,0,0,1-15.88,0,59.46,59.46,0,0,1,7.94-.26A59.59,59.59,0,0,1,409.48,235.85Z" style="fill:#263238"></path><rect x="85.65" y="130.05" width="97.44" height="87.18" style="fill:#fafafa"></rect><path d="M183.09,217.23s0-.56,0-1.62,0-2.64,0-4.67c0-4.1,0-10.08,0-17.7,0-15.23-.07-37-.12-63.19l.22.22-97.43,0h0l.26-.26c0,31.72,0,61.56,0,87.18l-.23-.23,70.48.11,19.88.06,5.26,0h1.36l.46,0h-1.77l-5.22,0-19.82.06-70.63.11h-.23v-.22c0-25.62,0-55.46,0-87.18v-.26h.27l97.43,0h.23v.22c0,26.25-.09,48.07-.12,63.33,0,7.6,0,13.57-.06,17.65,0,2,0,3.57,0,4.63S183.09,217.23,183.09,217.23Z" style="fill:#263238"></path><path d="M123,145.54c0,.14-5.13.26-11.46.26s-11.45-.12-11.45-.26,5.12-.26,11.45-.26S123,145.4,123,145.54Z" style="fill:#263238"></path><path d="M164.3,152.08c0,.15-14.09.26-31.46.26s-31.47-.11-31.47-.26,14.08-.26,31.47-.26S164.3,151.94,164.3,152.08Z" style="fill:#263238"></path><rect x="100.27" y="163.17" width="4.11" height="4.11" style="fill:#263238"></rect><rect x="110.38" y="163.17" width="4.11" height="4.11" style="fill:#263238"></rect><rect x="120.67" y="162.99" width="4.11" height="4.11" style="fill:#37474F"></rect><rect x="130.59" y="163.17" width="4.11" height="4.11" style="fill:#263238"></rect><rect x="140.69" y="163.17" width="4.11" height="4.11" style="fill:#263238"></rect><rect x="150.8" y="163.17" width="4.11" height="4.11" style="fill:#263238"></rect><rect x="160.9" y="163.17" width="4.11" height="4.11" style="fill:#263238"></rect><rect x="100.27" y="171.9" width="4.11" height="4.11" style="fill:#263238"></rect><rect x="110.38" y="171.9" width="4.11" height="4.11" style="fill:#263238"></rect><rect x="120.48" y="171.9" width="4.11" height="4.11" style="fill:#263238"></rect><rect x="130.59" y="171.9" width="4.11" height="4.11" style="fill:#263238"></rect><rect x="140.69" y="171.9" width="4.11" height="4.11" style="fill:#263238"></rect><rect x="150.99" y="171.71" width="4.11" height="4.11" style="fill:#37474F"></rect><rect x="160.9" y="171.9" width="4.11" height="4.11" style="fill:#263238"></rect><rect x="100.27" y="180.63" width="4.11" height="4.11" style="fill:#263238"></rect><rect x="110.57" y="180.44" width="4.11" height="4.11" style="fill:#37474F"></rect><rect x="120.48" y="180.63" width="4.11" height="4.11" style="fill:#263238"></rect><rect x="130.59" y="180.63" width="4.11" height="4.11" style="fill:#263238"></rect><rect x="140.69" y="180.63" width="4.11" height="4.11" style="fill:#263238"></rect><rect x="150.8" y="180.63" width="4.11" height="4.11" style="fill:#263238"></rect><rect x="160.9" y="180.63" width="4.11" height="4.11" style="fill:#263238"></rect><rect x="100.27" y="189.35" width="4.11" height="4.11" style="fill:#263238"></rect><rect x="110.38" y="189.35" width="4.11" height="4.11" style="fill:#263238"></rect><rect x="120.48" y="189.35" width="4.11" height="4.11" style="fill:#263238"></rect><rect x="130.78" y="189.17" width="4.11" height="4.11" style="fill:#37474F"></rect><rect x="140.69" y="189.35" width="4.11" height="4.11" style="fill:#263238"></rect><rect x="150.8" y="189.35" width="4.11" height="4.11" style="fill:#263238"></rect><rect x="160.9" y="189.35" width="4.11" height="4.11" style="fill:#263238"></rect><rect x="100.27" y="198.08" width="4.11" height="4.11" style="fill:#263238"></rect><rect x="110.38" y="198.08" width="4.11" height="4.11" style="fill:#263238"></rect><rect x="120.48" y="198.08" width="4.11" height="4.11" style="fill:#263238"></rect><rect x="130.59" y="198.08" width="4.11" height="4.11" style="fill:#263238"></rect><rect x="140.69" y="198.08" width="4.11" height="4.11" style="fill:#263238"></rect><rect x="150.99" y="197.89" width="4.11" height="4.11" style="fill:#37474F"></rect><rect x="160.9" y="198.08" width="4.11" height="4.11" style="fill:#263238"></rect><path d="M177.94,95.21s0-.13,0-.37,0-.62,0-1c0-1,0-2.24-.06-3.84,0-3.32-.07-7.94-.12-13.41l.23.24-14.79,0c-.05.06.5-.49.26-.25h0v5.06c0,1.66,0,3.27,0,4.84,0,3.13,0,6.06,0,8.73l-.22-.21,10.68.11,3,0c.71,0,1.09,0,1.1,0a7.21,7.21,0,0,1-1,.05l-3,.06-10.81.11h-.21v-.22c0-2.67,0-5.6,0-8.73V81.64c0-.83,0-1.67,0-2.51V76.58h0l.26-.27,14.79,0h.24v.23c-.05,5.53-.09,10.2-.12,13.56,0,1.58-.05,2.85-.06,3.79,0,.39,0,.72,0,1A1.15,1.15,0,0,1,177.94,95.21Z" style="fill:#263238"></path><path d="M197.56,95.21a1.22,1.22,0,0,1,0-.24c0-.18,0-.4,0-.68,0-.63,0-1.5,0-2.61,0-2.29,0-5.57-.07-9.65,0-8.21-.07-19.66-.12-32.8l.26.25H183.73c.52-.52.15-.13.26-.25V62.75c0,4.34,0,8.5,0,12.41,0,7.81-.05,14.65-.07,20l-.17-.16,10.13.09,2.73,0,.72,0h.25a.89.89,0,0,1-.22,0l-.69,0-2.69,0-10.23.09h-.16v-.17c0-5.4,0-12.24-.07-20,0-3.91,0-8.07,0-12.41,0-2.17,0-4.39,0-6.65V49.24c.12-.12-.26.25.26-.27h14.08v.25c-.05,13.21-.09,24.72-.11,33,0,4.05-.06,7.31-.08,9.59q0,1.62,0,2.55c0,.27,0,.48,0,.65A1.31,1.31,0,0,1,197.56,95.21Z" style="fill:#263238"></path><path d="M217.69,95.21a4.38,4.38,0,0,1,0-.56c0-.4,0-.91,0-1.56,0-1.4,0-3.35-.06-5.79,0-5-.07-11.89-.12-20l.25.25H203.74l.25-.25h0v7.84c0,2.54,0,5,0,7.36,0,4.7,0,9,0,12.64l-.2-.19,10.15.1,2.8,0,.74,0,.27,0a5.89,5.89,0,0,1-.94,0l-2.75,0-10.27.11h-.19v-.2c0-3.66,0-7.94,0-12.64,0-2.36,0-4.82,0-7.36,0-1.28,0-2.57,0-3.88v-4h0l.27-.27,13.95,0h.24v.24c-.05,8.14-.09,15.12-.12,20.12,0,2.42-.05,4.35-.06,5.74,0,.63,0,1.13,0,1.51A2.53,2.53,0,0,1,217.69,95.21Z" style="fill:#263238"></path><path d="M238.21,95.21a1.66,1.66,0,0,1,0-.21c0-.16,0-.35,0-.59,0-.54,0-1.29,0-2.24,0-2,0-4.81-.07-8.33,0-7.09-.07-17-.12-28.45l.25.25H223.67l.25-.26v11.5c0,3.71,0,7.27,0,10.65,0,6.75,0,12.75-.06,17.67l-.18-.17,10.63.09,2.89,0,.76,0,.27,0s-.07,0-.23,0l-.73,0-2.85,0-10.74.1h-.17v-.18c0-4.92,0-10.92-.06-17.67,0-3.38,0-6.94,0-10.65V61.23c0-1,0-1.93,0-2.9V55.39c.12-.11-.26.25.27-.27h14.8v.26c0,11.51-.08,21.49-.11,28.62,0,3.5-.06,6.3-.07,8.27q0,1.39,0,2.19C238.23,95,238.22,95.22,238.21,95.21Z" style="fill:#263238"></path></g><g id="freepik--Plants--inject-73"><rect x="79.22" y="400.69" width="67.19" height="9.23" style="fill:#263238"></rect><path d="M146.53,410H79.11v-9.46h67.42Zm-67.19-.23h67v-9h-67Z" style="fill:#263238"></path><polygon points="85.45 406.85 95.13 454.56 130.91 454.56 140.26 409.93 85.45 406.85" style="fill:#263238"></polygon><polygon points="85.45 450.05 90.61 457.14 134.11 457.14 140.26 450.05 85.45 450.05" style="fill:#455a64"></polygon><path d="M110.3,408.25c-.14,0-.31-22.11-.38-49.37s0-49.36.1-49.36.3,22.09.38,49.36S110.43,408.25,110.3,408.25Z" style="fill:#263238"></path><path d="M125.26,352.93a2.11,2.11,0,0,1-.18.52c-.16.37-.35.85-.6,1.43l-.44,1c-.14.39-.28.81-.44,1.25s-.34.94-.52,1.44-.32,1.07-.5,1.64a67.08,67.08,0,0,0-1.88,8.23,101.29,101.29,0,0,0-1,10.29,138.75,138.75,0,0,0,.53,18.79c.22,2.4.44,4.34.6,5.67.06.63.12,1.14.17,1.55a2,2,0,0,1,0,.54,2.64,2.64,0,0,1-.12-.53c-.07-.4-.15-.91-.26-1.53-.22-1.33-.48-3.27-.74-5.67a124.67,124.67,0,0,1-.68-18.85,93.66,93.66,0,0,1,1.09-10.33,62.86,62.86,0,0,1,2-8.26c.19-.57.34-1.13.53-1.64s.38-1,.56-1.43l.48-1.25c.17-.37.34-.71.48-1,.28-.56.51-1,.68-1.39A4.43,4.43,0,0,1,125.26,352.93Z" style="fill:#263238"></path><path d="M123.54,335.06a3.57,3.57,0,0,1-.21.73c-.17.51-.41,1.19-.7,2-.16.45-.33,1-.51,1.48s-.35,1.15-.54,1.79c-.4,1.28-.85,2.73-1.26,4.37-.21.81-.44,1.66-.67,2.55s-.41,1.83-.63,2.8c-.47,1.92-.81,4-1.24,6.19-.74,4.39-1.39,9.25-1.84,14.36s-.61,10-.68,14.48,0,8.46.23,11.83c.06,1.68.16,3.2.25,4.54s.16,2.48.25,3.42.12,1.63.16,2.17a7.11,7.11,0,0,1,0,.76,3.89,3.89,0,0,1-.12-.75c-.07-.54-.15-1.26-.26-2.16s-.22-2.09-.33-3.42-.24-2.86-.32-4.55c-.23-3.36-.32-7.38-.33-11.85s.21-9.37.64-14.51,1.12-10,1.88-14.4c.45-2.18.8-4.28,1.29-6.2l.66-2.8c.25-.89.48-1.74.71-2.55.42-1.64.9-3.09,1.32-4.36l.58-1.78.56-1.47c.32-.85.58-1.52.78-2A4.52,4.52,0,0,1,123.54,335.06Z" style="fill:#263238"></path><path d="M106.05,412.16a.7.7,0,0,1,0-.26c0-.2,0-.45-.07-.76,0-.71-.11-1.69-.19-2.93-.16-2.58-.39-6.25-.68-10.77-.58-9.08-1.42-21.64-2.95-35.45-.78-6.9-1.69-13.46-2.63-19.4-.5-3-1-5.8-1.47-8.42s-1-5.08-1.45-7.31-.94-4.23-1.33-6-.77-3.28-1.08-4.51-.53-2.17-.7-2.85c-.07-.31-.13-.55-.17-.75a.68.68,0,0,1,0-.25l.09.24c0,.19.12.43.21.73.19.68.45,1.63.79,2.83s.74,2.73,1.16,4.5.93,3.75,1.4,6,1,4.67,1.51,7.3,1,5.45,1.51,8.42c1,5.95,1.89,12.52,2.67,19.43,1.53,13.82,2.32,26.39,2.82,35.48.25,4.55.42,8.24.52,10.78,0,1.25.08,2.23.11,2.93,0,.32,0,.57,0,.77S106.05,412.16,106.05,412.16Z" style="fill:#263238"></path><path d="M109.75,320.14c-.29-3.13-3.46-5.49-6.6-5.52a10.35,10.35,0,0,0-8,4.34,24.7,24.7,0,0,0-3.85,8.55c-2.12,7.37-3.28,15.12-2.37,22.75s4,15.12,9.46,20.51c.89.87,2,1.75,3.26,1.49a3.94,3.94,0,0,0,1.72-1.07,50.9,50.9,0,0,0,16.53-38.71c-.09-2.9-.47-5.91-2.07-8.33s-5.35-5-8.08-4" style="fill:#37474F"></path><path d="M86.27,295.06l-4.43,8c-.11.19-.24.4-.46.42s-.4-.2-.53-.4l-11.71-18,2.7-1.53Z" style="fill:#37474F"></path><g style="opacity:0.2"><path d="M86.27,295.06l-4.43,8c-.11.19-.24.4-.46.42s-.4-.2-.53-.4l-11.71-18,2.7-1.53Z"></path></g><path d="M110,309.52,70.07,286c-.4-.25-.85-.53-1-1s.28-1.16.71-1.6A27.53,27.53,0,0,1,91.16,275a24.38,24.38,0,0,1,19.3,12c3.85,6.89,4,16-.44,22.54" style="fill:#37474F"></path><path d="M75.83,278.42a1.81,1.81,0,0,1,.52-.06c.35,0,.86-.08,1.51-.08a30.76,30.76,0,0,1,5.54.44,32.77,32.77,0,0,1,16.37,7.9,32.68,32.68,0,0,1,9.49,15.5,30.59,30.59,0,0,1,1,5.47c.07.65,0,.82.06,1.16a2,2,0,0,1-.31.88,6.69,6.69,0,0,0,.06-2,32.76,32.76,0,0,0-26.71-28.55,34.08,34.08,0,0,0-5.49-.59C76.56,278.44,75.83,278.46,75.83,278.42Z" style="fill:#263238"></path><path d="M104.61,293.25a10.38,10.38,0,0,1-2,.92c-1.27.5-3,1.14-5,1.77s-3.81,1.13-5.14,1.46a9.21,9.21,0,0,1-2.18.41,11.7,11.7,0,0,1,2.09-.74l5.09-1.59,5.07-1.63A10.33,10.33,0,0,1,104.61,293.25Z" style="fill:#263238"></path><path d="M98.32,276.35a16.91,16.91,0,0,1,.47,4.46,16.74,16.74,0,0,1-.24,4.47,27.38,27.38,0,0,1-.24-4.46A28.37,28.37,0,0,1,98.32,276.35Z" style="fill:#263238"></path><path d="M69.72,285.5a18.75,18.75,0,0,1,2.91-1c1.81-.56,4.34-1.27,7.15-2s5.4-1.2,7.27-1.53a17.9,17.9,0,0,1,3-.41,20.48,20.48,0,0,1-3,.74c-1.85.42-4.4,1-7.21,1.67s-5.35,1.33-7.18,1.8A22.2,22.2,0,0,1,69.72,285.5Z" style="fill:#263238"></path><path d="M93.17,313.35c-3.44-2.61-7.07-3.12-11.38-3a34.73,34.73,0,0,0-12.45,3.21c-6.73,2.95-13.07,7.3-17.09,13.46s-5.43,14.3-2.41,21a3,3,0,0,0,1.36,1.65,3.29,3.29,0,0,0,2.26-.17c7.66-2.5,15.37-5,22.42-8.94s13.45-9.35,17.23-16.47a14.17,14.17,0,0,0,1.82-5.46,6.84,6.84,0,0,0-1.76-5.34" style="fill:#37474F"></path><path d="M93.24,312.54a2.83,2.83,0,0,1-.56.22l-1.6.56-1.16.38c-.42.15-.87.34-1.36.53-1,.39-2.1.79-3.28,1.36l-1.88.86c-.65.3-1.3.67-2,1-1.39.68-2.79,1.55-4.29,2.44a74.12,74.12,0,0,0-9.07,6.72,75.65,75.65,0,0,0-7.83,8.14c-1.07,1.38-2.11,2.66-3,4-.44.64-.89,1.23-1.27,1.84l-1.09,1.76c-.72,1.1-1.25,2.16-1.76,3.08-.25.46-.5.88-.7,1.28l-.53,1.1-.75,1.52a2.22,2.22,0,0,1-.3.52,3.41,3.41,0,0,1,.21-.56c.17-.4.39-.92.67-1.56l.5-1.13c.19-.4.42-.83.66-1.3.49-.93,1-2,1.71-3.13l1.07-1.78c.38-.61.82-1.22,1.25-1.87.85-1.31,1.88-2.61,3-4a65.62,65.62,0,0,1,17-15c1.51-.88,2.93-1.74,4.34-2.41.7-.35,1.35-.71,2-1l1.9-.83c1.2-.56,2.34-.93,3.33-1.3.49-.18,1-.35,1.37-.49l1.18-.35,1.64-.47A2.38,2.38,0,0,1,93.24,312.54Z" style="fill:#263238"></path><path d="M66.4,327.07A81.29,81.29,0,0,1,58,329.76,77.75,77.75,0,0,1,49.55,332a79.31,79.31,0,0,1,8.36-2.69A83.67,83.67,0,0,1,66.4,327.07Z" style="fill:#263238"></path><path d="M66.05,345.51a13.62,13.62,0,0,1-.18-2.6c-.05-1.61-.05-3.84,0-6.29s.2-4.68.33-6.28a13.21,13.21,0,0,1,.33-2.59,14.1,14.1,0,0,1,0,2.6c-.06,1.77-.12,3.91-.2,6.28s-.11,4.52-.15,6.28A15,15,0,0,1,66.05,345.51Z" style="fill:#263238"></path><path d="M81.85,337.47c-.13,0-.55-4.52-.94-10.1s-.59-10.13-.46-10.14.55,4.52.94,10.1S82,337.46,81.85,337.47Z" style="fill:#263238"></path><path d="M62.19,316.8a13.46,13.46,0,0,1,2.67-.08c1.66,0,3.94.06,6.45.14s4.8.18,6.45.28a14.58,14.58,0,0,1,2.67.26,14.73,14.73,0,0,1-2.68.08c-1.65,0-3.93-.06-6.45-.14s-4.8-.19-6.45-.29A14.91,14.91,0,0,1,62.19,316.8Z" style="fill:#263238"></path><path d="M100.11,371.82a2,2,0,0,1-.06-.54c0-.4,0-.91-.07-1.53-.06-1.34-.08-3.27,0-5.66s.2-5.23.49-8.38.76-6.59,1.4-10.19,1.46-7,2.28-10,1.69-5.78,2.49-8,1.49-4.07,2-5.31l.6-1.41a2.28,2.28,0,0,1,.25-.49,2.55,2.55,0,0,1-.16.52c-.13.38-.31.86-.52,1.45-.47,1.25-1.12,3.07-1.87,5.34s-1.57,5-2.39,8-1.56,6.43-2.22,10-1.11,7-1.44,10.14-.51,6-.6,8.35-.13,4.31-.13,5.64c0,.63,0,1.14,0,1.54A3.85,3.85,0,0,1,100.11,371.82Z" style="fill:#263238"></path><path d="M102.21,345.66a10.5,10.5,0,0,1-1.59,1.75c-1,1-2.5,2.42-4.18,3.88s-3.23,2.75-4.39,3.64a11.15,11.15,0,0,1-1.94,1.35,11,11,0,0,1,1.72-1.62l4.3-3.73,4.26-3.76A12.82,12.82,0,0,1,102.21,345.66Z" style="fill:#263238"></path><path d="M114.86,355.85a18,18,0,0,1-1.7-2.35c-1.09-1.6-2.45-3.57-4-5.76l-4-5.71a17.24,17.24,0,0,1-1.61-2.41,16.65,16.65,0,0,1,1.88,2.21c1.11,1.41,2.59,3.39,4.15,5.63s2.91,4.33,3.84,5.85A16.28,16.28,0,0,1,114.86,355.85Z" style="fill:#263238"></path><path d="M108.23,323.82c.07.11-4.13,2.94-9.38,6.31s-9.57,6-9.64,5.91,4.13-2.93,9.38-6.31S108.16,323.71,108.23,323.82Z" style="fill:#263238"></path><path d="M120.08,336.6a77.12,77.12,0,0,1-6.36-5.87,82.45,82.45,0,0,1-6-6.21,75,75,0,0,1,6.36,5.87A80.28,80.28,0,0,1,120.08,336.6Z" style="fill:#263238"></path><path d="M123.05,336.34l3.61-.3a17.8,17.8,0,0,0,7.28-2.22,28.32,28.32,0,0,1,3.39-1.71c4.46-1.79,9.43-1.47,14.23-1.71a58.81,58.81,0,0,0,22.64-5.79,2.16,2.16,0,0,0,1-.89c.74-1.35-.63-2.55-1.82-3.28-6.07-3.74-12.25-7.53-19.14-9.39s-14.71-1.55-20.59,2.5c-6.9,4.75-9.41,14.5-10.58,22.79" style="fill:#37474F"></path><path d="M175.26,323.28a6.36,6.36,0,0,1-.61-.29l-1.71-.89c-1.48-.78-3.61-1.93-6.31-3.23a58.86,58.86,0,0,0-9.77-3.76,32.25,32.25,0,0,0-12.66-1,21.67,21.67,0,0,0-11.55,5,25.7,25.7,0,0,0-6,8.44c-1.26,2.7-2,5-2.61,6.58-.27.75-.48,1.35-.64,1.81a2.69,2.69,0,0,1-.26.63,4.39,4.39,0,0,1,.16-.65l.56-1.85a60.11,60.11,0,0,1,2.49-6.66,25.42,25.42,0,0,1,6-8.63,21.92,21.92,0,0,1,11.78-5.1A32.32,32.32,0,0,1,157,314.68a57.09,57.09,0,0,1,9.8,3.89c2.69,1.34,4.8,2.53,6.25,3.36l1.67,1A2.4,2.4,0,0,1,175.26,323.28Z" style="fill:#263238"></path><path d="M166.6,327.93c-.07.11-4.78-2.94-10.53-6.81s-10.33-7.11-10.26-7.21,4.79,2.94,10.53,6.81S166.68,327.82,166.6,327.93Z" style="fill:#263238"></path><path d="M161.58,313.66a11.65,11.65,0,0,1-3.44.61,11.3,11.3,0,0,1-3.5,0,22.22,22.22,0,0,1,3.46-.35A22.45,22.45,0,0,1,161.58,313.66Z" style="fill:#263238"></path><path d="M140.93,311a9.09,9.09,0,0,1-1.54,2.41,10.43,10.43,0,0,1-2,2.23,9.22,9.22,0,0,1,1.54-2.42A10.22,10.22,0,0,1,140.93,311Z" style="fill:#263238"></path><path d="M145.16,330.71a13.38,13.38,0,0,1-2.27-1.23c-1.36-.83-3.2-2-5.17-3.47s-3.7-2.78-4.95-3.77a13.87,13.87,0,0,1-2-1.68A13.62,13.62,0,0,1,133,322l5,3.65c2,1.42,3.76,2.67,5.07,3.57A16.2,16.2,0,0,1,145.16,330.71Z" style="fill:#263238"></path><path d="M128.36,351.66c-3.44-.91-7.54,2.44-8.25,5.92s.6,7.05,2.13,10.26a52.48,52.48,0,0,0,14.22,18.61,35.18,35.18,0,0,0,21.75,8c-1.45-6.76.38-13.81-.43-20.67A26.87,26.87,0,0,0,134,350.22c-2.19-.24-4.73-.59-5.61,1.44" style="fill:#37474F"></path><path d="M158.21,394.46a2.87,2.87,0,0,1-.49-.23,9.11,9.11,0,0,1-1.29-.86,13.39,13.39,0,0,1-3.39-4.55c-.55-1.06-1.16-2.22-1.76-3.5l-1.85-4.09a39.81,39.81,0,0,0-2.28-4.37,34.73,34.73,0,0,0-3.12-4.25c-2.36-2.77-4.88-5.16-7.07-7.45a48.29,48.29,0,0,1-5.4-6.46,23.73,23.73,0,0,1-2.63-5c-.22-.63-.38-1.13-.46-1.47a2.46,2.46,0,0,1-.11-.53s.24.7.74,1.94a26.46,26.46,0,0,0,2.74,4.9,50.73,50.73,0,0,0,5.43,6.36c2.2,2.26,4.74,4.64,7.12,7.44a33.3,33.3,0,0,1,3.16,4.32,38.89,38.89,0,0,1,2.28,4.43c.64,1.44,1.24,2.82,1.81,4.11s1.17,2.44,1.7,3.51a13.8,13.8,0,0,0,3.21,4.55C157.56,394.09,158.24,394.41,158.21,394.46Z" style="fill:#263238"></path><path d="M140.43,388.85a9.55,9.55,0,0,1,.31-2.32c.27-1.42.71-3.36,1.31-5.48s1.23-4,1.74-5.35a10,10,0,0,1,.94-2.14,11.83,11.83,0,0,1-.62,2.25c-.42,1.37-1,3.26-1.6,5.37s-1.09,4-1.44,5.42A13.49,13.49,0,0,1,140.43,388.85Z" style="fill:#263238"></path><path d="M157.56,372.27a13.65,13.65,0,0,1-2.42-.56c-1.49-.38-3.53-.91-5.81-1.43s-4.35-.91-5.86-1.19a14.18,14.18,0,0,1-2.42-.54,11.9,11.9,0,0,1,2.48.2c1.52.2,3.62.55,5.91,1.07s4.33,1.1,5.79,1.57A11.73,11.73,0,0,1,157.56,372.27Z" style="fill:#263238"></path><path d="M127.66,377.09a13.92,13.92,0,0,1,.38-2.68c.3-1.65.78-3.9,1.42-6.37s1.33-4.67,1.87-6.25a14.5,14.5,0,0,1,1-2.52,15,15,0,0,1-.66,2.62c-.45,1.6-1.08,3.82-1.72,6.27s-1.18,4.7-1.56,6.32A16.19,16.19,0,0,1,127.66,377.09Z" style="fill:#263238"></path><path d="M149.67,357.82a92.53,92.53,0,0,1-9.59-.77c-5.28-.56-9.55-1.12-9.54-1.25a96,96,0,0,1,9.59.77C145.41,357.13,149.68,357.69,149.67,357.82Z" style="fill:#263238"></path><path d="M146.52,409.89c0,.13-15.09.24-33.7.24s-33.71-.11-33.71-.24,15.09-.24,33.71-.24S146.52,409.75,146.52,409.89Z" style="fill:#455a64"></path><path d="M136,429.31c0,.13-10.16.24-22.7.24s-22.71-.11-22.71-.24,10.16-.24,22.71-.24S136,429.18,136,429.31Z" style="fill:#455a64"></path><path d="M135.63,432.08c0,.14-10,.24-22.31.24S91,432.22,91,432.08s10-.23,22.32-.23S135.63,432,135.63,432.08Z" style="fill:#455a64"></path><path d="M136.42,427c0,.13-10.52.24-23.49.24s-23.49-.11-23.49-.24,10.52-.24,23.49-.24S136.42,426.89,136.42,427Z" style="fill:#455a64"></path><path d="M394,401a10.66,10.66,0,0,1,5.51,6.24,18.87,18.87,0,0,1,.73,8.45c-.62,5.49-3.74,11-7.09,15.41-4.62-4-5.68-11.06-6-14.66-.5-5.7,2.06-16.29,6.85-15.44" style="fill:#37474F"></path><path d="M398.93,440.71a9.07,9.07,0,0,1,2.3-8.81,12,12,0,0,1,8.65-3.41,5,5,0,0,1,4,1.46,3.87,3.87,0,0,1,.34,3.92,7.77,7.77,0,0,1-2.69,3.06c-3.81,2.8-8,4.8-12.62,3.78" style="fill:#37474F"></path><path d="M392.84,456.9a3.55,3.55,0,0,1,.13-1.15c.13-.74.34-1.79.63-3.09a38.71,38.71,0,0,1,3.47-9.83,19.55,19.55,0,0,1,7.1-7.61,12.46,12.46,0,0,1,2.92-1.26,3.82,3.82,0,0,1,1.14-.22,27.65,27.65,0,0,0-3.83,1.86,20.31,20.31,0,0,0-6.78,7.52,44.65,44.65,0,0,0-3.59,9.64A35.85,35.85,0,0,1,392.84,456.9Z" style="fill:#263238"></path><path d="M393,409.29a12,12,0,0,1,.18,1.9c.08,1.23.16,3,.24,5.2.17,4.4.29,10.47.27,17.19s-.21,12.78-.41,17.18c-.1,2.2-.2,4-.29,5.2a11.32,11.32,0,0,1-.19,1.9,10.16,10.16,0,0,1-.05-1.91c0-1.34.06-3.09.09-5.21.09-4.39.2-10.46.23-17.17s0-12.77-.08-17.17c0-2.11,0-3.86-.05-5.2A10.58,10.58,0,0,1,393,409.29Z" style="fill:#263238"></path><path d="M390.4,443.65a21.21,21.21,0,0,0-11.26-15.78c-1.52-.77-3.53-1.3-4.82-.18s-1.05,3.19-.47,4.8a18.15,18.15,0,0,0,16.43,11.61" style="fill:#37474F"></path><path d="M379.59,433a4.15,4.15,0,0,1,1,.42,8.26,8.26,0,0,1,1.15.61,14.94,14.94,0,0,1,1.46.93,22.53,22.53,0,0,1,3.4,2.95,26,26,0,0,1,3.29,4.43,25.66,25.66,0,0,1,2.18,5.07,22.16,22.16,0,0,1,.85,4.43,13.35,13.35,0,0,1,.08,1.72,8.67,8.67,0,0,1,0,1.31,3.89,3.89,0,0,1-.16,1.1c-.12,0,0-1.59-.3-4.08a25.13,25.13,0,0,0-1-4.31,27.48,27.48,0,0,0-2.18-4.93,27.9,27.9,0,0,0-3.17-4.35,25.85,25.85,0,0,0-3.24-3C381,433.8,379.53,433.13,379.59,433Z" style="fill:#263238"></path></g></svg>