<svg id="visual" viewBox="0 0 900 600" width="900" height="600" xmlns="http://www.w3.org/2000/svg" xmlns:xlink="http://www.w3.org/1999/xlink" version="1.1"><rect x="0" y="0" width="900" height="600" fill="#FFF"></rect><path d="M0 404L21.5 392.8C43 381.7 86 359.3 128.8 349.8C171.7 340.3 214.3 343.7 257.2 365.2C300 386.7 343 426.3 385.8 419.7C428.7 413 471.3 360 514.2 333C557 306 600 305 642.8 322.5C685.7 340 728.3 376 771.2 383C814 390 857 368 878.5 357L900 346L900 601L878.5 601C857 601 814 601 771.2 601C728.3 601 685.7 601 642.8 601C600 601 557 601 514.2 601C471.3 601 428.7 601 385.8 601C343 601 300 601 257.2 601C214.3 601 171.7 601 128.8 601C86 601 43 601 21.5 601L0 601Z" fill="#AABF7E" stroke-linecap="round" stroke-linejoin="miter"></path></svg>