<svg id="visual" viewBox="0 0 900 600" width="900" height="600" xmlns="http://www.w3.org/2000/svg" xmlns:xlink="http://www.w3.org/1999/xlink" version="1.1"><rect x="0" y="0" width="900" height="600" fill="#FFF"></rect><path d="M0 477L21.5 470.2C43 463.3 86 449.7 128.8 443.8C171.7 438 214.3 440 257.2 453.3C300 466.7 343 491.3 385.8 487.2C428.7 483 471.3 450 514.2 433.2C557 416.3 600 415.7 642.8 426.5C685.7 437.3 728.3 459.7 771.2 464C814 468.3 857 454.7 878.5 447.8L900 441L900 601L878.5 601C857 601 814 601 771.2 601C728.3 601 685.7 601 642.8 601C600 601 557 601 514.2 601C471.3 601 428.7 601 385.8 601C343 601 300 601 257.2 601C214.3 601 171.7 601 128.8 601C86 601 43 601 21.5 601L0 601Z" fill="#AABF7E" stroke-linecap="round" stroke-linejoin="miter"></path></svg>