<svg id="visual" viewBox="0 0 900 600" width="900" height="600" xmlns="http://www.w3.org/2000/svg" xmlns:xlink="http://www.w3.org/1999/xlink" version="1.1"><rect x="0" y="0" width="900" height="600" fill="#FFF"></rect><path d="M0 453L21.5 444.7C43 436.3 86 419.7 128.8 412.5C171.7 405.3 214.3 407.7 257.2 423.7C300 439.7 343 469.3 385.8 464.3C428.7 459.3 471.3 419.7 514.2 399.5C557 379.3 600 378.7 642.8 391.8C685.7 405 728.3 432 771.2 437.2C814 442.3 857 425.7 878.5 417.3L900 409L900 601L878.5 601C857 601 814 601 771.2 601C728.3 601 685.7 601 642.8 601C600 601 557 601 514.2 601C471.3 601 428.7 601 385.8 601C343 601 300 601 257.2 601C214.3 601 171.7 601 128.8 601C86 601 43 601 21.5 601L0 601Z" fill="#AABF7E" stroke-linecap="round" stroke-linejoin="miter"></path></svg>